<?xml version="1.0" encoding="UTF-8" standalone="no"?>
<!-- Created with Inkscape (http://www.inkscape.org/) -->

<svg
   xmlns:dc="http://purl.org/dc/elements/1.1/"
   xmlns:cc="http://creativecommons.org/ns#"
   xmlns:rdf="http://www.w3.org/1999/02/22-rdf-syntax-ns#"
   xmlns:svg="http://www.w3.org/2000/svg"
   xmlns="http://www.w3.org/2000/svg"
   xmlns:sodipodi="http://sodipodi.sourceforge.net/DTD/sodipodi-0.dtd"
   xmlns:inkscape="http://www.inkscape.org/namespaces/inkscape"
   width="305.1528mm"
   height="305.1528mm"
   viewBox="0 0 305.15279 305.1528"
   version="1.1"
   id="svg8"
   inkscape:version="0.92.4 5da689c313, 2019-01-14"
   sodipodi:docname="template.svg">
  <defs
     id="defs2"
     style="stroke-linecap:butt;stroke-linejoin:round">
    <style
       id="style6"
       type="text/css">
   
    .str0 {stroke:#000000;stroke-width:3}
    .fil2 {fill:none}
    .fil6 {fill:#000000}
    .fil1 {fill:#AAC8B4}
    .fil5 {fill:#AB7486}
    .fil4 {fill:#B4DCF0}
    .fil3 {fill:#D97382}
    .fil0 {fill:#FFFFC8}
    .fnt0 {font-weight:normal;font-size:28;font-family:Arial}
   
  </style>
    <clipPath
       id="clip1">
   <path
   id="path9"
   d="M 232,90 C 249,-1 397,2 412,76 c 14,45 13,91 18,139 22,74 44,148 49,222 2,28 4,55 5,83 0,22 -19,69 -20,106 0,13 -22,25 -32,15 5,37 -6,55 -37,49 6,28 -23,49 -47,34 -7,23 -40,31 -57,13 -8,-15 -9,-48 -10,-76 -2,-13 -20,-16 -18,4 0,6 0,9 0,15 10,21 7,47 -4,63 -10,16 -48,16 -60,-3 -11,-18 -11,-57 -11,-66 -18,-66 -23,-128 -6,-187 21,-46 34,-101 34,-170 -1,-76 8,-152 16,-227 z"
   inkscape:connector-curvature="0" />

  </clipPath>
    <style
       id="style1537"
       type="text/css">
*{stroke-linecap:butt;stroke-linejoin:round;}
  </style>
    <path
       id="DejaVuSans-49"
       d="m 12.40625,8.296875 h 16.109375 v 55.625 L 10.984375,60.40625 v 8.984375 l 17.4375,3.515625 H 38.28125 V 8.296875 H 54.390625 V 0 H 12.40625 Z"
       inkscape:connector-curvature="0"
       style="stroke-linecap:butt;stroke-linejoin:round" />
    <path
       id="DejaVuSans-48"
       d="m 31.78125,66.40625 q -7.609375,0 -11.453125,-7.5 Q 16.5,51.421875 16.5,36.375 q 0,-14.984375 3.828125,-22.484375 3.84375,-7.5 11.453125,-7.5 7.671875,0 11.5,7.5 3.84375,7.5 3.84375,22.484375 0,15.046875 -3.84375,22.53125 -3.828125,7.5 -11.5,7.5 z m 0,7.8125 q 12.265625,0 18.734375,-9.703125 6.46875,-9.6875 6.46875,-28.140625 0,-18.40625 -6.46875,-28.109375 -6.46875,-9.6875 -18.734375,-9.6875 -12.25,0 -18.71875,9.6875 Q 6.59375,17.96875 6.59375,36.375 q 0,18.453125 6.46875,28.140625 6.46875,9.703125 18.71875,9.703125 z"
       inkscape:connector-curvature="0"
       style="stroke-linecap:butt;stroke-linejoin:round" />
    <path
       id="DejaVuSans-51"
       d="M 40.578125,39.3125 Q 47.65625,37.796875 51.625,33 q 3.984375,-4.78125 3.984375,-11.8125 0,-10.78125 -7.421875,-16.703125 -7.421875,-5.90625 -21.09375,-5.90625 -4.578125,0 -9.4375,0.90625 -4.859375,0.90625 -10.03125,2.71875 v 9.515625 q 4.09375,-2.390625 8.96875,-3.609375 4.890625,-1.21875 10.21875,-1.21875 9.265625,0 14.125,3.65625 4.859375,3.65625 4.859375,10.640625 0,6.453125 -4.515625,10.078125 -4.515625,3.640625 -12.5625,3.640625 h -8.5 v 8.109375 h 8.890625 q 7.265625,0 11.125,2.90625 3.859375,2.90625 3.859375,8.375 0,5.609375 -3.984375,8.609375 -3.96875,3.015625 -11.390625,3.015625 -4.0625,0 -8.703125,-0.890625 Q 15.375,64.15625 9.8125,62.3125 v 8.78125 q 5.625,1.5625 10.53125,2.34375 4.90625,0.78125 9.25,0.78125 11.234375,0 17.765625,-5.109375 6.546875,-5.09375 6.546875,-13.78125 0,-6.0625 -3.46875,-10.234375 -3.46875,-4.171875 -9.859375,-5.78125 z"
       inkscape:connector-curvature="0"
       style="stroke-linecap:butt;stroke-linejoin:round" />
    <path
       id="DejaVuSans-54"
       d="m 33.015625,40.375 q -6.640625,0 -10.53125,-4.546875 -3.875,-4.53125 -3.875,-12.4375 0,-7.859375 3.875,-12.4375 3.890625,-4.5625 10.53125,-4.5625 6.640625,0 10.515625,4.5625 3.875,4.578125 3.875,12.4375 0,7.90625 -3.875,12.4375 Q 39.65625,40.375 33.015625,40.375 Z M 52.59375,71.296875 V 62.3125 q -3.71875,1.75 -7.5,2.671875 -3.78125,0.9375 -7.5,0.9375 -9.765625,0 -14.921875,-6.59375 -5.140625,-6.59375 -5.875,-19.921875 2.875,4.25 7.21875,6.515625 4.359375,2.265625 9.578125,2.265625 10.984375,0 17.359375,-6.671875 6.375,-6.65625 6.375,-18.125 0,-11.234375 -6.640625,-18.03125 -6.640625,-6.78125 -17.671875,-6.78125 -12.65625,0 -19.34375,9.6875 -6.6875,9.703125 -6.6875,28.109375 0,17.28125 8.203125,27.5625 8.203125,10.28125 22.015625,10.28125 3.71875,0 7.5,-0.734375 3.78125,-0.734375 7.890625,-2.1875 z"
       inkscape:connector-curvature="0"
       style="stroke-linecap:butt;stroke-linejoin:round" />
    <path
       id="DejaVuSans-52"
       d="M 37.796875,64.3125 12.890625,25.390625 h 24.90625 z m -2.59375,8.59375 h 12.40625 V 25.390625 h 10.40625 V 17.1875 H 47.609375 V 0 h -9.8125 V 17.1875 H 4.890625 v 9.515625 z"
       inkscape:connector-curvature="0"
       style="stroke-linecap:butt;stroke-linejoin:round" />
    <path
       id="DejaVuSans-56"
       d="m 31.78125,34.625 q -7.03125,0 -11.0625,-3.765625 -4.015625,-3.765625 -4.015625,-10.34375 0,-6.59375 4.015625,-10.359375 4.03125,-3.765625 11.0625,-3.765625 7.03125,0 11.078125,3.78125 4.0625,3.796875 4.0625,10.34375 0,6.578125 -4.03125,10.34375 Q 38.875,34.625 31.78125,34.625 Z m -9.859375,4.1875 Q 15.578125,40.375 12.03125,44.71875 8.5,49.078125 8.5,55.328125 q 0,8.734375 6.21875,13.8125 6.234375,5.078125 17.0625,5.078125 10.890625,0 17.09375,-5.078125 6.203125,-5.078125 6.203125,-13.8125 0,-6.25 -3.546875,-10.609375 Q 48,40.375 41.703125,38.8125 q 7.125,-1.65625 11.09375,-6.5 3.984375,-4.828125 3.984375,-11.796875 0,-10.609375 -6.46875,-16.28125 -6.46875,-5.65625 -18.53125,-5.65625 -12.046875,0 -18.53125,5.65625 -6.46875,5.671875 -6.46875,16.28125 0,6.96875 4,11.796875 4.015625,4.84375 11.140625,6.5 z M 18.3125,54.390625 q 0,-5.65625 3.53125,-8.828125 3.546875,-3.171875 9.9375,-3.171875 6.359375,0 9.9375,3.171875 3.59375,3.171875 3.59375,8.828125 0,5.671875 -3.59375,8.84375 -3.578125,3.171875 -9.9375,3.171875 -6.390625,0 -9.9375,-3.171875 Q 18.3125,60.0625 18.3125,54.390625 Z"
       inkscape:connector-curvature="0"
       style="stroke-linecap:butt;stroke-linejoin:round" />
    <path
       id="DejaVuSans-50"
       d="M 19.1875,8.296875 H 53.609375 V 0 H 7.328125 v 8.296875 q 5.609375,5.8125 15.296875,15.59375 9.703125,9.796875 12.1875,12.640625 4.734375,5.3125 6.609375,9 1.890625,3.6875 1.890625,7.25 0,5.8125 -4.078125,9.46875 -4.078125,3.671875 -10.625,3.671875 -4.640625,0 -9.796875,-1.609375 -5.140625,-1.609375 -11,-4.890625 v 9.96875 Q 13.765625,71.78125 18.9375,73 q 5.1875,1.21875 9.484375,1.21875 11.328125,0 18.0625,-5.671875 6.734375,-5.65625 6.734375,-15.125 0,-4.5 -1.6875,-8.53125 Q 49.859375,40.875 45.40625,35.40625 44.1875,33.984375 37.640625,27.21875 31.109375,20.453125 19.1875,8.296875 Z"
       inkscape:connector-curvature="0"
       style="stroke-linecap:butt;stroke-linejoin:round" />
    <path
       id="DejaVuSans-53"
       d="m 10.796875,72.90625 h 38.71875 v -8.3125 h -29.6875 V 46.734375 q 2.140625,0.734375 4.28125,1.09375 2.15625,0.359375 4.3125,0.359375 Q 40.625,48.1875 47.75,41.5 54.890625,34.8125 54.890625,23.390625 54.890625,11.625 47.5625,5.09375 40.234375,-1.421875 26.90625,-1.421875 q -4.59375,0 -9.359375,0.78125 -4.75,0.78125 -9.828125,2.34375 V 11.625 q 4.390625,-2.390625 9.078125,-3.5625 4.6875,-1.171875 9.90625,-1.171875 8.453125,0 13.375,4.4375 4.9375,4.4375 4.9375,12.0625 0,7.609375 -4.9375,12.046875 -4.921875,4.453125 -13.375,4.453125 -3.953125,0 -7.890625,-0.875 -3.921875,-0.875 -8.015625,-2.734375 z"
       inkscape:connector-curvature="0"
       style="stroke-linecap:butt;stroke-linejoin:round" />
    <path
       id="DejaVuSans-55"
       d="m 8.203125,72.90625 h 46.875 V 68.703125 L 28.609375,0 H 18.3125 L 43.21875,64.59375 H 8.203125 Z"
       inkscape:connector-curvature="0"
       style="stroke-linecap:butt;stroke-linejoin:round" />
    <path
       id="DejaVuSans-57"
       d="M 10.984375,1.515625 V 10.5 Q 14.703125,8.734375 18.5,7.8125 q 3.8125,-0.921875 7.484375,-0.921875 9.765625,0 14.90625,6.5625 5.15625,6.5625 5.890625,19.953125 -2.828125,-4.203125 -7.1875,-6.453125 -4.34375,-2.25 -9.609375,-2.25 -10.9375,0 -17.3125,6.609375 -6.375,6.625 -6.375,18.109375 0,11.21875 6.640625,18 6.640625,6.796875 17.671875,6.796875 12.65625,0 19.3125,-9.703125 6.671875,-9.6875 6.671875,-28.140625 0,-17.234375 -8.1875,-27.515625 -8.171875,-10.28125 -21.984375,-10.28125 -3.71875,0 -7.53125,0.734375 -3.796875,0.734375 -7.90625,2.203125 z m 19.625,30.90625 q 6.640625,0 10.515625,4.53125 3.890625,4.546875 3.890625,12.46875 0,7.859375 -3.890625,12.421875 -3.875,4.5625 -10.515625,4.5625 -6.640625,0 -10.515625,-4.5625 -3.875,-4.5625 -3.875,-12.421875 0,-7.921875 3.875,-12.46875 3.875,-4.53125 10.515625,-4.53125 z"
       inkscape:connector-curvature="0"
       style="stroke-linecap:butt;stroke-linejoin:round" />
    <path
       style="stroke:#000000;stroke-width:0.80000001;stroke-linecap:butt;stroke-linejoin:round"
       id="m7b02a7f235"
       d="M 0,0 H 3.5"
       inkscape:connector-curvature="0" />
    <clipPath
       id="p029eef0fc7"
       style="stroke-linecap:butt;stroke-linejoin:round">
      <rect
         id="rect1782"
         y="162"
         x="108"
         width="535.67999"
         height="535.67999"
         style="stroke-linecap:butt;stroke-linejoin:round" />
    </clipPath>
    <clipPath
       id="p647a537354"
       style="stroke-linecap:butt;stroke-linejoin:round">
      <rect
         id="rect1785"
         y="103.68"
         x="677.15997"
         width="32.616001"
         height="652.32001"
         style="stroke-linecap:butt;stroke-linejoin:round" />
    </clipPath>
  </defs>
  <sodipodi:namedview
     id="base"
     pagecolor="#ffffff"
     bordercolor="#666666"
     borderopacity="1.0"
     inkscape:pageopacity="0.0"
     inkscape:pageshadow="2"
     inkscape:zoom="0.49497475"
     inkscape:cx="233.01879"
     inkscape:cy="453.70857"
     inkscape:document-units="mm"
     inkscape:current-layer="g1363"
     showgrid="false"
     fit-margin-top="0"
     fit-margin-left="0"
     fit-margin-right="0"
     fit-margin-bottom="0"
     inkscape:snap-global="true"
     inkscape:snap-smooth-nodes="true"
     inkscape:snap-midpoints="true"
     inkscape:snap-intersection-paths="true"
     inkscape:object-paths="true"
     inkscape:window-width="1920"
     inkscape:window-height="1004"
     inkscape:window-x="0"
     inkscape:window-y="0"
     inkscape:window-maximized="1"
     inkscape:showpageshadow="false"
     showguides="true"
     inkscape:guide-bbox="true"
     inkscape:snap-bbox="true"
     inkscape:bbox-paths="true"
     inkscape:bbox-nodes="true"
     inkscape:snap-bbox-edge-midpoints="true"
     inkscape:snap-bbox-midpoints="true"
     inkscape:snap-object-midpoints="true"
     inkscape:snap-center="true"
     inkscape:snap-text-baseline="true"
     inkscape:snap-page="true">
    <sodipodi:guide
       position="38.285852,246.88146"
       orientation="1,0"
       id="guide1972"
       inkscape:locked="false" />
    <sodipodi:guide
       position="40.435592,247.85002"
       orientation="0,1"
       id="guide1974"
       inkscape:locked="false" />
    <sodipodi:guide
       position="224.9116,58.838293"
       orientation="0,1"
       id="guide1985"
       inkscape:locked="false" />
    <sodipodi:guide
       position="227.27395,63.32676"
       orientation="1,0"
       id="guide1987"
       inkscape:locked="false" />
  </sodipodi:namedview>
  <metadata
     id="metadata5">
    <rdf:RDF>
      <cc:Work
         rdf:about="">
        <dc:format>image/svg+xml</dc:format>
        <dc:type
           rdf:resource="http://purl.org/dc/dcmitype/StillImage" />
        <dc:title></dc:title>
      </cc:Work>
    </rdf:RDF>
  </metadata>
  <g
     inkscape:label="Layer 1"
     inkscape:groupmode="layer"
     id="layer1"
     transform="translate(92.098702,83.778595)">
    <g
       id="g937"
       transform="translate(262.69345,-35.907738)">
      <g
         style="fill-rule:evenodd;image-rendering:optimizeQuality;shape-rendering:geometricPrecision;text-rendering:geometricPrecision"
         id="g1027"
         transform="matrix(0.26458333,0,0,0.26458333,-850.60787,90.654229)">
        <g
           id="Layer 1">
  
  
  
  
  
  
  
  
  
  
  
  <g
   id="g1045"
   transform="rotate(180,242.56328,393.69834)">
  <g
     transform="matrix(-0.80675978,-0.21617063,-0.21617063,0.80675978,599.66899,245.67821)"
     id="g1155" />
  <g
     id="g1363"
     style="stroke:#000000">
    <path
       style="opacity:1;fill:#ffffff;fill-opacity:1;stroke:none;stroke-width:2.51675057;stroke-linecap:round;stroke-linejoin:round;stroke-miterlimit:4;stroke-dasharray:none;stroke-dashoffset:0;stroke-opacity:1"
       d="m 0,0 v 1153.334 l 884.63342,0 V 0 Z m 341.45898,282.01758 c 6.59852,-8.5e-4 12.95868,1.79521 17.4375,5.93164 12.06254,11.47516 20.03068,41.2073 21.86914,48.06836 27.20378,46.63756 43.67948,92.88145 42.77149,141.33203 -6.61278,39.35723 -5.28789,83.94156 8.80664,136.54297 16.2867,57.73351 24.9505,117.50877 34.17187,176.31836 5.62863,72.84543 -107.81236,100.79048 -134.36328,47.4414 -19.86489,-31.44552 -28.4967,-66.71812 -42.11328,-102.28906 -31.88727,-51.9192 -63.7756,-103.83676 -82.70312,-159.22851 -7.24419,-20.93696 -14.28381,-41.11268 -20.76563,-62.25391 -4.49394,-16.77147 0.39133,-56.48176 -6.40429,-84.89258 -2.65547,-9.91041 11.66205,-23.55141 21.32812,-17.9707 -11.36961,-27.18521 -6.66088,-43.15579 18.19727,-44.91406 -10.29351,-20.11989 7.52665,-42.05414 28.88671,-35.52149 0.63822,-18.96368 24.16223,-31.80228 40.79883,-21.55273 9.1628,9.80094 16.66467,34.75525 23.14649,55.89648 4.18022,9.50188 18.51431,8.11169 12.90429,-6.72656 -1.22558,-4.57404 -1.83886,-6.86152 -3.06445,-11.43555 -11.91304,-13.96644 -14.93587,-34.39937 -9.81836,-48.84375 2.85797,-9.34507 16.31689,-15.90072 28.91406,-15.90234 z m 320.77344,0 c 12.59718,0.002 26.05414,6.55727 28.91211,15.90234 5.11751,14.44438 2.09468,34.87731 -9.81836,48.84375 -1.22558,4.57403 -1.83691,6.86151 -3.0625,11.43555 -5.61001,14.83825 8.72408,16.22844 12.9043,6.72656 6.48181,-21.14123 13.98369,-46.09554 23.14648,-55.89648 16.63661,-10.24955 40.16062,2.58905 40.79883,21.55273 21.36008,-6.53265 39.17828,15.4016 28.88477,35.52149 24.85814,1.75827 29.56687,17.72885 18.19726,44.91406 9.66607,-5.58071 23.98555,8.06029 21.33008,17.9707 -6.79563,28.41082 -1.91035,68.12111 -6.4043,84.89258 -6.48181,21.14123 -13.52143,41.31695 -20.76562,62.25391 -18.92752,55.39174 -50.81586,107.30931 -82.70313,159.22851 -13.61658,35.57094 -22.25033,70.84354 -42.11523,102.28906 -26.55091,53.34908 -139.98996,25.40403 -134.36133,-47.4414 9.22138,-58.80959 17.88323,-118.58485 34.16992,-176.31836 14.09453,-52.60141 15.42138,-97.18574 8.8086,-136.54297 -0.908,-48.45058 15.56771,-94.69447 42.77148,-141.33203 1.83848,-6.86106 9.80466,-36.5932 21.86719,-48.06836 4.47882,-4.13643 10.84094,-5.93249 17.43945,-5.93164 z"
       id="rect2194"
       inkscape:connector-curvature="0"
       sodipodi:nodetypes="cccccsccccccccccccccccccssccccccccccccccccccs"
       transform="rotate(-180,-694.41131,655.47803)" />
    <g
       style="stroke:#000000;stroke-linecap:butt;stroke-linejoin:round"
       id="g1518"
       transform="matrix(0.94493959,0,0,0.94493959,-1000.8785,224.68531)">
      <path
         id="path1353"
         style="fill:none;stroke:#000000;stroke-width:2.5;stroke-linecap:butt;stroke-linejoin:miter;stroke-miterlimit:4;stroke-dasharray:none;stroke-opacity:1"
         d="m -893.614,380.29739 c 38.13136,63.02249 64.75313,128.35561 38.76675,205.52172 m 88.32715,-146.18352 c -66.95972,-4.71439 -103.77526,-28.04544 -127.0939,-59.3382 M -629.36938,759.0502 C -655.9256,704.69538 -676.22461,649.37906 -698.47551,595.02424 L -766.5201,439.63559 v 0 l 13.96009,-71.26254 m 78.94813,431.34612 c -7.21844,-7.57733 -22.96785,-40.53864 -27.50743,-57.48059 m 58.07534,19.89074 c -13.51427,-8.48442 -18.05385,-25.42637 -22.00285,-43.39126 m 41.2606,-4.13828 c -10.01313,-5.09913 -14.43687,-15.15467 -16.44033,-25.85872 m 4.89848,2.14619 c 1.43975,-10.76197 7.83591,-15.93455 19.62081,-13.90421 m -35.00301,62.98935 c -1.62904,-12.53374 4.1186,-20.1266 17.24293,-22.77857 m -32.33967,40.65865 c -7.47701,1.13877 -12.47582,5.07225 -14.78025,12.60718 m -38.8248,16.45585 c 6.33823,-8.61579 15.80318,-12.01659 28.23659,-7.56597 m -100.60192,5.33914 c 6.12207,-9.42255 31.9963,-12.8968 41.53469,0.11168 m -43.35301,-35.94113 c 51.08859,26.08625 155.89392,-18.42522 166.28868,-99.03192 m -22.07193,-157.69917 c -19.22974,-41.18927 -43.66961,-80.98247 -68.10947,-120.77568 -14.40999,-37.64361 -23.54708,-74.97073 -44.56939,-108.24854 -6.80877,-13.68094 -19.01691,-22.31016 -33.52307,-26.43568 -45.35696,-12.8994 -113.1805,18.23162 -108.6673,76.64103 3.48837,22.24716 6.90128,44.62502 10.63419,66.98812 6.70992,40.19763 14.45378,80.3476 25.52838,119.60508 8.33812,31.11829 12.45308,59.58522 13.23837,85.91665 0.61948,20.77196 -0.83312,40.21499 -3.91919,58.58232 -0.96085,51.27373 16.47553,100.21198 45.26446,149.56705 1.94554,7.26084 10.37619,38.72447 23.14162,50.86827 13.78836,12.73439 44.44523,4.51991 49.0541,-10.54996 5.41563,-15.28603 2.21547,-36.9103 -10.39171,-51.69055 l -3.24256,-12.10139 c -5.93693,-15.70286 9.23326,-17.17365 13.65699,-7.11811 6.85954,22.3731 14.79993,48.78 24.49657,59.15203 17.60599,10.84678 42.4997,-2.74093 43.17509,-22.8096 22.60479,6.9133 41.46124,-16.2976 30.56791,-37.58985 5.46586,-0.38662 10.01118,-1.42246 13.67459,-3.07912 13.96823,-6.31665 15.11529,-21.65871 5.58316,-44.45042 10.2293,5.90589 25.38397,-8.53098 22.57375,-19.01886 -7.19155,-30.06628 -2.02314,-72.09123 -6.77889,-89.83995 -6.85954,-22.3731 -14.30966,-43.72328 -21.97596,-65.88021 -5.52351,-16.16464 -12.08992,-32.04983 -19.49958,-47.92198 -42.47703,-34.25952 -77.38511,-74.92935 -103.09311,-123.56573 -20.41309,-38.61905 -35.02558,-82.26095 -43.02088,-131.70482"
         inkscape:connector-curvature="0" />
    </g>
    <g
       style="stroke:#000000;stroke-linecap:butt;stroke-linejoin:round"
       id="g1524"
       transform="matrix(-0.94493959,0,0,0.94493959,-2780.4574,224.68531)">
      <path
         inkscape:connector-curvature="0"
         d="m -893.614,380.29739 c 38.13136,63.02249 64.75313,128.35561 38.76675,205.52172 m 88.32715,-146.18352 c -66.95972,-4.71439 -103.77526,-28.04544 -127.0939,-59.3382 M -629.36938,759.0502 C -655.9256,704.69538 -676.22461,649.37906 -698.47551,595.02424 L -766.5201,439.63559 v 0 l 13.96009,-71.26254 m 78.94813,431.34612 c -7.21844,-7.57733 -22.96785,-40.53864 -27.50743,-57.48059 m 58.07534,19.89074 c -13.51427,-8.48442 -18.05385,-25.42637 -22.00285,-43.39126 m 41.2606,-4.13828 c -10.01313,-5.09913 -14.43687,-15.15467 -16.44033,-25.85872 m 4.89848,2.14619 c 1.43975,-10.76197 7.83591,-15.93455 19.62081,-13.90421 m -35.00301,62.98935 c -1.62904,-12.53374 4.1186,-20.1266 17.24293,-22.77857 m -32.33967,40.65865 c -7.47701,1.13877 -12.47582,5.07225 -14.78025,12.60718 m -38.8248,16.45585 c 6.33823,-8.61579 15.80318,-12.01659 28.23659,-7.56597 m -100.60192,5.33914 c 6.12207,-9.42255 31.9963,-12.8968 41.53469,0.11168 m -43.35301,-35.94113 c 51.08859,26.08625 155.89392,-18.42522 166.28868,-99.03192 m -22.07193,-157.69917 c -19.22974,-41.18927 -43.66961,-80.98247 -68.10947,-120.77568 -14.40999,-37.64361 -23.54708,-74.97073 -44.56939,-108.24854 -6.80877,-13.68094 -19.01691,-22.31016 -33.52307,-26.43568 -45.35696,-12.8994 -113.1805,18.23162 -108.6673,76.64103 3.48837,22.24716 6.90128,44.62502 10.63419,66.98812 6.70992,40.19763 14.45378,80.3476 25.52838,119.60508 8.33812,31.11829 12.45308,59.58522 13.23837,85.91665 0.61948,20.77196 -0.83312,40.21499 -3.91919,58.58232 -0.96085,51.27373 16.47553,100.21198 45.26446,149.56705 1.94554,7.26084 10.37619,38.72447 23.14162,50.86827 13.78836,12.73439 44.44523,4.51991 49.0541,-10.54996 5.41563,-15.28603 2.21547,-36.9103 -10.39171,-51.69055 l -3.24256,-12.10139 c -5.93693,-15.70286 9.23326,-17.17365 13.65699,-7.11811 6.85954,22.3731 14.79993,48.78 24.49657,59.15203 17.60599,10.84678 42.4997,-2.74093 43.17509,-22.8096 22.60479,6.9133 41.46124,-16.2976 30.56791,-37.58985 5.46586,-0.38662 10.01118,-1.42246 13.67459,-3.07912 13.96823,-6.31665 15.11529,-21.65871 5.58316,-44.45042 10.2293,5.90589 25.38397,-8.53098 22.57375,-19.01886 -7.19155,-30.06628 -2.02314,-72.09123 -6.77889,-89.83995 -6.85954,-22.3731 -14.30966,-43.72328 -21.97596,-65.88021 -5.52351,-16.16464 -12.08992,-32.04983 -19.49958,-47.92198 -42.47703,-34.25952 -77.38511,-74.92935 -103.09311,-123.56573 -20.41309,-38.61905 -35.02558,-82.26095 -43.02088,-131.70482"
         style="fill:none;stroke:#000000;stroke-width:2.5;stroke-linecap:butt;stroke-linejoin:miter;stroke-miterlimit:4;stroke-dasharray:none;stroke-opacity:1"
         id="path1522" />
    </g>
  </g>
</g>

  

  

  

  

  

  

  
  
  
  
 </g>
      </g>
    </g>
  </g>
</svg>
